HIERARCHY
ROOT reference
{
  OFFSET 0 0 0
  CHANNELS 6 Xposition Yposition Zposition Zrotation Xrotation Yrotation
  JOINT Hips
  {
    OFFSET 47.7805 80.9229 122.449
    CHANNELS 6 Xposition Yposition Zposition Zrotation Xrotation Yrotation
    JOINT Spine
    {
      OFFSET 0 7.3847 0
      CHANNELS 6 Xposition Yposition Zposition Zrotation Xrotation Yrotation
      JOINT Spine1
      {
        OFFSET 0 22.52 0
        CHANNELS 6 Xposition Yposition Zposition Zrotation Xrotation Yrotation
        JOINT Neck
        {
          OFFSET 0 22.4276 2.03887
          CHANNELS 6 Xposition Yposition Zposition Zrotation Xrotation Yrotation
          JOINT Head
          {
            OFFSET 0 12.608 -1.80115
            CHANNELS 6 Xposition Yposition Zposition Zrotation Xrotation Yrotation
            End Site
            {
              OFFSET 0 22.5143 0
            }
          }
        }
        JOINT LeftShoulder
        {
          OFFSET 3.70204 19.5563 -0.329131
          CHANNELS 6 Xposition Yposition Zposition Zrotation Xrotation Yrotation
          JOINT LeftArm
          {
            OFFSET 13.7086 0 0
            CHANNELS 6 Xposition Yposition Zposition Zrotation Xrotation Yrotation
            JOINT LeftForeArm
            {
              OFFSET 25.9307 0 0
              CHANNELS 6 Xposition Yposition Zposition Zrotation Xrotation Yrotation
              JOINT LeftHand
              {
                OFFSET 23.5097 0 0
                CHANNELS 6 Xposition Yposition Zposition Zrotation Xrotation Yrotation
                End Site
                {
                  OFFSET 13.5086 0 0
                }
              }
            }
          }
        }
        JOINT RightShoulder
        {
          OFFSET -3.48695 19.5563 -0.329131
          CHANNELS 6 Xposition Yposition Zposition Zrotation Xrotation Yrotation
          JOINT RightArm
          {
            OFFSET -13.7086 0 0
            CHANNELS 6 Xposition Yposition Zposition Zrotation Xrotation Yrotation
            JOINT RightForeArm
            {
              OFFSET -25.9307 0 0
              CHANNELS 6 Xposition Yposition Zposition Zrotation Xrotation Yrotation
              JOINT RightHand
              {
                OFFSET -23.5097 0 0
                CHANNELS 6 Xposition Yposition Zposition Zrotation Xrotation Yrotation
                End Site
                {
                  OFFSET -13.5086 0 0
                }
              }
            }
          }
        }
      }
    }
    JOINT LeftUpLeg
    {
      OFFSET 9.00574 0 0
      CHANNELS 6 Xposition Yposition Zposition Zrotation Xrotation Yrotation
      JOINT LeftLeg
      {
        OFFSET 0 -37.3387 0
        CHANNELS 6 Xposition Yposition Zposition Zrotation Xrotation Yrotation
        JOINT LeftFoot
        {
          OFFSET 0 -36.155 0
          CHANNELS 6 Xposition Yposition Zposition Zrotation Xrotation Yrotation
          JOINT LeftToeBase
          {
            OFFSET 0 -5.85373 13.5086
            CHANNELS 6 Xposition Yposition Zposition Zrotation Xrotation Yrotation
            End Site
            {
              OFFSET 0 0 3.60229
            }
          }
        }
      }
    }
    JOINT RightUpLeg
    {
      OFFSET -9.00574 0 0
      CHANNELS 6 Xposition Yposition Zposition Zrotation Xrotation Yrotation
      JOINT RightLeg
      {
        OFFSET 0 -37.3387 0
        CHANNELS 6 Xposition Yposition Zposition Zrotation Xrotation Yrotation
        JOINT RightFoot
        {
          OFFSET 0 -36.155 0
          CHANNELS 6 Xposition Yposition Zposition Zrotation Xrotation Yrotation
          JOINT RightToeBase
          {
            OFFSET 0 -5.85373 13.5086
            CHANNELS 6 Xposition Yposition Zposition Zrotation Xrotation Yrotation
            End Site
            {
              OFFSET 0 0 3.60229
            }
          }
        }
      }
    }
  }
}
MOTION
Frames:	8
Frame Time:	0.004
0 0 0 0 0 -0 20.4646 74.8357 -183.807 -0.096125 4.81336 6.60626 7.10543e-015 7.3847 0 -3.32052 -7.67491 0.0327158 0 22.52 0 0.506929 -2.1156 0.260999 0 22.4276 2.03887 7.87559 20.9501 -1.9126 7.10543e-015 12.608 -1.80115 -2.33556 -2.54972 -2.02335 3.70204 19.5563 -0.329131 20.5255 -3.98357 -5.24404 13.7086 -2.84217e-014 2.84217e-014 -26.588 -1.78965 2.67125 25.9307 2.84217e-014 5.68434e-014 3.82409 -4.74841 0.576214 23.5097 0 -2.84217e-014 -4.79419 -4.62922 -3.30041 -3.48695 19.5563 -0.329131 -12.9905 -0.961482 -2.87305 -13.7086 0 2.84217e-014 18.862 3.43466 3.91456 -25.9307 0 0 -3.1205 -3.80489 0.441612 -23.5097 0 -2.84217e-014 -3.91737 -3.81977 1.0546 9.00574 -1.42109e-014 0 -2.36961 -10.544 -1.18543 0 -37.3387 0 -1.6658 18.4517 0.945186 0 -36.155 0 3.2126 -13.0047 -0.756157 0 -5.85373 13.5086 9.31803e-018 -4.96962e-017 -7.95139e-016 -9.00574 -7.10543e-015 0 -0.817569 -3.5566 -0.377001 -3.55271e-015 -37.3387 0 7.78816 11.8817 -5.29255 -3.55271e-015 -36.155 0 -6.79594 -14.0254 -18.448 0 -5.85373 13.5086 -7.45443e-017 -9.93923e-017 -0 
0 0 0 0 0 -0 20.4646 74.8357 -183.807 -0.0966836 4.81329 6.61292 0 7.3847 2.84217e-014 -3.32052 -7.67491 0.0327158 0 22.52 0 0.506929 -2.1156 0.260999 0 22.4276 2.03887 7.87597 20.9606 -1.91274 0 12.608 -1.80115 -2.33595 -2.5607 -2.02336 3.70204 19.5563 -0.329131 20.5255 -3.98357 -5.24404 13.7086 0 0 -26.588 -1.78965 2.67125 25.9307 0 -2.84217e-014 3.82416 -4.75507 0.57622 23.5097 0 0 -4.79461 -4.63636 -3.30045 -3.48695 19.5563 -0.329131 -12.9905 -0.961482 -2.87305 -13.7086 0 0 18.8714 3.45245 3.91463 -25.9307 0 2.84217e-014 -3.1205 -3.80489 0.441612 -23.5097 0 2.84217e-014 -4.08292 -3.83185 1.09178 9.00574 -7.10543e-015 0 -2.37311 -10.5439 -1.20456 0 -37.3387 2.84217e-014 -1.68241 18.442 0.961299 0 -36.155 0 3.21282 -13.0047 -0.755169 0 -5.85373 13.5086 -1.2424e-017 0 7.95139e-016 -9.00574 7.10543e-015 -2.84217e-014 -0.817507 -3.5566 -0.375994 0 -37.3387 0 7.78816 11.8817 -5.29255 0 -36.155 2.84217e-014 -6.80148 -14.0235 -18.471 -7.10543e-015 -5.85373 13.5086 -0 -9.93923e-017 -0 
0 0 0 0 0 -0 20.4646 74.8357 -183.81 -0.0973209 4.81322 6.62051 0 7.3847 2.84217e-014 -3.32052 -7.67491 0.0327158 0 22.52 0 0.506929 -2.1156 0.260999 -7.10543e-015 22.4276 2.03887 7.87495 20.9422 -1.9125 7.10543e-015 12.608 -1.80115 -2.33499 -2.53363 -2.02332 3.70204 19.5563 -0.329131 20.5255 -3.98357 -5.24404 13.7086 -2.84217e-014 0 -26.588 -1.78965 2.67125 25.9307 2.84217e-014 0 3.82422 -4.76099 0.576225 23.5097 0 2.84217e-014 -4.80856 -4.6421 -3.29862 -3.48695 19.5563 -0.329131 -12.9905 -0.961482 -2.87305 -13.7086 0 2.84217e-014 18.8732 3.44667 3.91461 -25.9307 0 0 -3.13371 -3.79321 0.441606 -23.5097 0 0 -3.90872 -3.81723 1.06237 9.00574 -2.13163e-014 2.84217e-014 -2.37046 -10.5487 -1.18959 0 -37.3387 2.84217e-014 -1.67636 18.4407 0.959328 0 -36.155 -2.84217e-014 3.20889 -13.0046 -0.772658 0 -5.85373 13.5086 -6.21202e-018 -4.96962e-017 -0 -9.00574 -1.42109e-014 2.84217e-014 -0.818655 -3.56221 -0.393879 0 -37.3387 -2.84217e-014 7.78816 11.8817 -5.29255 0 -36.155 2.84217e-014 -6.80649 -14.0155 -18.4496 0 -5.85373 13.5086 -8.69683e-017 -9.93923e-017 -0 
0 0 0 0 0 -0 20.4646 74.8357 -183.812 -0.0971241 4.81315 6.62723 0 7.3847 2.84217e-014 -3.32052 -7.67491 0.0327158 -7.10543e-015 22.52 0 0.506929 -2.1156 0.260999 0 22.4276 2.03887 7.86519 20.9373 -1.91244 0 12.608 -1.80115 -2.33475 -2.52684 -2.02331 3.70204 19.5563 -0.329131 20.5255 -3.98357 -5.24404 13.7086 0 0 -26.5826 -1.78965 2.67125 25.9307 0 0 3.81507 -4.76816 0.57649 23.5097 0 0 -4.83828 -4.64746 -3.3232 -3.48695 19.5563 -0.329131 -12.9905 -0.961482 -2.87305 -13.7086 0 -2.84217e-014 18.8789 3.43689 3.91457 -25.9307 0 2.84217e-014 -3.12297 -3.78756 0.441603 -23.5097 0 0 -3.9398 -3.81176 1.05502 9.00574 1.42109e-014 2.84217e-014 -2.37278 -10.5613 -1.20002 0 -37.3387 0 -1.66978 18.4618 0.888733 0 -36.155 0 3.21604 -13.0048 -0.694911 -7.10543e-015 -5.85373 13.5086 -1.86361e-017 -1.49089e-016 7.95139e-016 -9.00574 1.42109e-014 0 -0.81831 -3.56377 -0.392281 -3.55271e-015 -37.3387 0 7.78816 11.8817 -5.29255 3.55271e-015 -36.155 0 -6.80394 -14.015 -18.4583 -7.10543e-015 -5.85373 13.5086 -1.2424e-017 0 9.54166e-015 
0 0 0 0 0 -0 20.4646 74.8357 -183.814 -0.0983066 4.81312 6.63095 0 7.3847 0 -3.32015 -7.67491 0.0327158 0 22.52 0 0.505596 -2.1156 0.260999 0 22.4276 2.03887 7.87449 20.9345 -1.9124 7.10543e-015 12.608 -1.80115 -2.33422 -2.51195 -2.02329 3.70204 19.5563 -0.329131 20.5255 -3.98357 -5.24404 13.7086 0 0 -26.5965 -1.78965 2.67125 25.9307 2.84217e-014 0 3.83425 -4.78606 0.576854 23.5097 0 -2.84217e-014 -4.81848 -4.66605 -3.32103 -3.48695 19.5563 -0.329131 -12.979 -0.961482 -2.87305 -13.7086 0 0 18.8691 3.43116 3.9092 -25.9307 2.84217e-014 0 -3.11763 -3.78341 0.441225 -23.5097 2.84217e-014 -2.84217e-014 -3.9281 -3.80773 1.05362 9.00574 0 0 -2.37305 -10.559 -1.20097 -7.10543e-015 -37.3387 0 -1.67653 18.456 0.957828 0 -36.155 2.84217e-014 3.21277 -13.0047 -0.75428 -7.10543e-015 -5.85373 13.5086 -6.21202e-018 -4.96962e-017 -0 -9.00574 0 -2.84217e-014 -0.817549 -3.56518 -0.384168 0 -37.3387 0 7.78816 11.8817 -5.29255 0 -36.155 -2.84217e-014 -6.8325 -14.0166 -18.4754 0 -5.85373 13.5086 -1.2424e-017 1.49089e-016 -9.54166e-015 
0 0 0 0 0 -0 20.4646 74.8357 -183.816 -0.0998505 4.81305 6.63784 0 7.3847 0 -3.31984 -7.67491 0.0327158 0 22.52 0 0.494963 -2.11968 0.261 0 22.4276 2.03887 7.86539 20.9468 -1.91256 0 12.608 -1.80115 -2.32317 -2.52501 -2.02331 3.70204 19.5563 -0.329131 20.5255 -3.98357 -5.24404 13.7086 2.84217e-014 0 -26.6046 -1.79372 2.67126 25.9307 0 0 3.83227 -4.78997 0.577243 23.5097 0 -2.84217e-014 -4.82266 -4.67006 -3.32244 -3.48695 19.5563 -0.329131 -12.9807 -0.961482 -2.87337 -13.7086 0 0 18.8787 3.44429 3.89956 -25.9307 0 0 -3.1152 -3.78164 0.438675 -23.5097 0 2.84217e-014 -3.90414 -3.80624 1.05573 9.00574 0 2.84217e-014 -2.37335 -10.5594 -1.20175 -7.10543e-015 -37.3387 0 -1.67291 18.4487 0.908268 0 -36.155 0 3.2159 -13.0047 -0.726435 7.10543e-015 -5.85373 13.5086 -3.10601e-017 -9.93923e-017 -2.38542e-015 -9.00574 7.10543e-015 0 -0.818347 -3.56643 -0.401254 -3.55271e-015 -37.3387 0 7.78816 11.8817 -5.29255 3.55271e-015 -36.155 0 -6.81679 -14.0192 -18.4608 0 -5.85373 13.5086 4.96962e-017 4.96962e-017 6.36111e-015 
0 0 0 0 0 -0 20.4646 74.8357 -183.817 -0.101118 4.81302 6.6406 0 7.3847 0 -3.31957 -7.67491 0.0327158 0 22.52 0 0.497977 -2.12263 0.261 0 22.4276 2.03887 7.86213 20.9463 -1.91255 0 12.608 -1.80115 -2.3272 -2.51818 -2.0233 3.70204 19.5563 -0.329131 20.5178 -3.98357 -5.24404 13.7086 0 2.84217e-014 -26.5974 -1.80491 2.67128 25.9307 -2.84217e-014 0 3.82981 -4.79364 0.577613 23.5097 2.84217e-014 2.84217e-014 -4.87625 -4.672 -3.3233 -3.48695 19.5563 -0.329131 -12.9778 -0.961482 -2.87391 -13.7086 0 -2.84217e-014 18.8814 3.43266 3.89846 -25.9307 -2.84217e-014 0 -3.11348 -3.781 0.435751 -23.5097 -2.84217e-014 0 -3.94196 -3.80588 1.06941 9.00574 1.42109e-014 0 -2.37371 -10.5598 -1.20288 0 -37.3387 0 -1.67566 18.4561 0.945147 0 -36.155 0 3.20712 -13.0047 -0.757018 0 -5.85373 13.5086 -1.2424e-017 -9.93923e-017 7.95139e-016 -9.00574 -1.42109e-014 0 -0.817344 -3.56751 -0.389454 -3.55271e-015 -37.3387 2.84217e-014 7.78719 11.8818 -5.28786 0 -36.155 0 -6.82201 -14.0086 -18.4849 -7.10543e-015 -5.85373 13.5086 6.21202e-017 9.93923e-017 -0 
0 0 0 0 0 -0 20.4651 74.8357 -183.819 -0.102304 4.81301 6.64185 -7.10543e-015 7.3847 0 -3.3193 -7.67491 0.0327158 7.10543e-015 22.52 2.84217e-014 0.499181 -2.1236 0.261001 0 22.4276 2.03887 7.85916 20.9355 -1.91241 0 12.608 -1.80115 -2.33623 -2.50217 -2.02327 3.70204 19.5563 -0.329131 20.5323 -3.98357 -5.24404 13.7086 0 0 -26.6188 -1.80106 2.67127 25.9307 0 0 3.8455 -4.79952 0.577913 23.5097 2.84217e-014 -2.84217e-014 -4.89892 -4.67752 -3.31783 -3.48695 19.5563 -0.329131 -12.9753 -0.961481 -2.87452 -13.7086 -2.84217e-014 2.84217e-014 18.8814 3.42173 3.8892 -25.9307 0 0 -3.11438 -3.78372 0.432791 -23.5097 -2.84217e-014 0 -3.97165 -3.80874 1.07006 9.00574 7.10543e-015 0 -2.37442 -10.5602 -1.20589 0 -37.3387 0 -1.67515 18.4435 0.939494 0 -36.155 0 3.20876 -13.0047 -0.752044 0 -5.85373 13.5086 -3.72721e-017 9.93923e-017 -7.95139e-016 -9.00574 0 -2.84217e-014 -0.8162 -3.56841 -0.375422 7.10543e-015 -37.3387 0 7.79393 11.8812 -5.32059 0 -36.155 2.84217e-014 -6.80922 -14.0113 -18.4686 0 -5.85373 13.5086 6.21202e-017 4.96962e-017 -3.18055e-015 
